<svg xmlns="http://www.w3.org/2000/svg" width="62" height="62" viewBox="0 0 62 62">
  <g id="Group_291" data-name="Group 291" transform="translate(6379 -5310)">
    <circle id="Ellipse_20" data-name="Ellipse 20" cx="31" cy="31" r="31" transform="translate(-6379 5310)" fill="#118585"/>
    <ellipse id="Ellipse_21" data-name="Ellipse 21" cx="1.5" cy="1" rx="1.5" ry="1" transform="translate(-6338 5339)" fill="#fff"/>
    <path id="Path_245" data-name="Path 245" d="M-483.257,331.161a6.937,6.937,0,0,0,1.223,3.92,6.453,6.453,0,0,0,6.689,2.791,6.547,6.547,0,0,0,5.3-5.153,6.94,6.94,0,0,0-2.675-7.488,6.708,6.708,0,0,0-9.335,1.673c-1.238,1.783-2.663,3.437-4.011,5.143q-2.81,3.558-5.628,7.11a8.331,8.331,0,0,1-3.062,2.221,11.615,11.615,0,0,1-15.345-5.252,11.477,11.477,0,0,1,6.126-15.826,11.6,11.6,0,0,1,12.924,3.081c.22.243.234.37.01.621-.884.99-1.742,2-2.6,3.015-.211.247-.331.311-.554-.025a6.318,6.318,0,0,0-5.445-2.974,6.489,6.489,0,0,0-6.589,5.234,7.028,7.028,0,0,0,1.995,6.985,6.585,6.585,0,0,0,9.575-.669c3.071-3.961,6.094-7.961,9.21-11.887a10.816,10.816,0,0,1,7.143-4.033,11.275,11.275,0,0,1,9.808,3.088,11.011,11.011,0,0,1,3.454,7.037,11.056,11.056,0,0,1-3.355,9.383,10.929,10.929,0,0,1-8.279,3.311,11.32,11.32,0,0,1-10.217-6.326c-.132-.241-.208-.437,0-.692,1.137-1.38,2.257-2.773,3.386-4.159C-483.452,331.224-483.4,331.128-483.257,331.161Z" transform="translate(-5860.378 5009.849)" fill="#fff"/>
  </g>
</svg>
