<svg id="Group_261" data-name="Group 261" xmlns="http://www.w3.org/2000/svg" width="54.566" height="47.014" viewBox="0 0 54.566 47.014">
  <path id="Path_98" data-name="Path 98" d="M94,291.8q-2.907,2.818-5.786,5.611a2.846,2.846,0,0,1-1.413.922,2.34,2.34,0,0,1-2.446-.726,1.732,1.732,0,0,1,.236-2.364c2.036-1.99,4.079-3.974,6.164-5.927a.981.981,0,0,0,.263-1.412,14.168,14.168,0,0,1-1.563-6.465c-.016-.633-.2-.814-.948-.8-2.13.046-4.262.022-6.394.014-1.506-.006-2.5-.746-2.5-1.847s.967-1.851,2.483-1.86c2.167-.013,4.334-.025,6.5.01.644.01.852-.122.843-.7-.038-2.463-.032-4.927,0-7.39a1.241,1.241,0,0,0-.561-1.009q-2.535-2.152-5.051-4.32c-1.16-1-1.255-2.046-.279-2.874a2.469,2.469,0,0,1,3.364.265c1.689,1.435,3.378,2.871,5.042,4.327a1.8,1.8,0,0,0,1.3.453q13.641-.02,27.281,0a1.8,1.8,0,0,0,1.3-.456c1.765-1.542,3.542-3.075,5.35-4.58a2.372,2.372,0,0,1,2.812-.182,1.646,1.646,0,0,1,.682,2.271,3.5,3.5,0,0,1-.726.777c-1.649,1.427-3.294,2.857-4.977,4.255a1.479,1.479,0,0,0-.63,1.26c.032,2.372.044,4.745-.005,7.116-.014.662.233.8.958.789,2.13-.041,4.262-.024,6.394-.011,1.513.009,2.488.757,2.48,1.864s-1,1.837-2.507,1.843c-2.167.008-4.334.014-6.5-.006-.536,0-.816.04-.832.611a14.411,14.411,0,0,1-2.037,7.465c-.286.456.039.65.336.9q3.236,2.778,6.465,5.561a1.616,1.616,0,0,1,.425,2.249,2.276,2.276,0,0,1-2.44.917,2.78,2.78,0,0,1-1.3-.749c-1.912-1.631-3.843-3.248-5.73-4.9-.488-.427-.765-.56-1.424-.125a18.366,18.366,0,0,1-8.219,2.987c-1.352.148-1.354.141-1.354-1,0-8.06-.014-16.12.022-24.18,0-.762-.208-1.011-1.1-.932a16.246,16.246,0,0,1-2.448,0c-.662-.042-.834.137-.825.7.04,2.311.017,4.623.017,6.934,0,5.9-.016,11.8.021,17.7,0,.71-.221.877-1.008.812a18.684,18.684,0,0,1-9.214-3.449Z" transform="translate(-79.614 -251.394)" fill="#227875"/>
  <path id="Path_99" data-name="Path 99" d="M167.264,230.152c-3.3,0-6.608-.025-9.911.019-.761.01-.939-.205-.907-.946.234-5.38,5.129-9.926,10.8-9.986a10.851,10.851,0,0,1,10.915,9.386c.215,1.528.215,1.528-1.307,1.528Z" transform="translate(-140.053 -219.238)" fill="#227875"/>
</svg>
