<svg xmlns="http://www.w3.org/2000/svg" width="79" height="56.824" viewBox="0 0 79 56.824">
  <g id="Group_254" data-name="Group 254" transform="translate(-242.599 -372.374)">
    <path id="Path_106" data-name="Path 106" d="M271.6,424.246q12.443,0,24.885.006a16.846,16.846,0,0,0,5.6-.959c.636-.22.862-.433.487-1.178-2.3-4.577-1.3-8.86,1.254-13,.437-.707.8-.743,1.462-.322a12.177,12.177,0,0,1,5.627,7.435c.234.921.5,1.2,1.521,1.057a12.581,12.581,0,0,1,8.359,1.393,1.223,1.223,0,0,1,.59,1.854,10.9,10.9,0,0,1-9.911,6.48,2.643,2.643,0,0,0-2.738,1.965c-3.53,8.678-8.877,15.852-17.357,20.324-7.646,4.032-15.851,5.23-24.373,4.761a46.251,46.251,0,0,1-8.374-1.284c-6.71-1.628-11.063-5.838-13.542-12.133a36.166,36.166,0,0,1-2.49-12.8c-.043-2.852.7-3.6,3.5-3.6Q258.853,424.244,271.6,424.246Z" transform="translate(0 -24.962)" fill="#227875"/>
    <path id="Path_107" data-name="Path 107" d="M393.652,437.712c-4.07,0-4.07,0-4.07-4.109,0-3.325,0-3.325,3.335-3.325,1.13,0,2.264.057,3.39-.016,1.1-.071,1.614.251,1.554,1.451-.08,1.589-.053,3.185-.007,4.776.027.94-.344,1.29-1.273,1.236C395.607,437.668,394.629,437.712,393.652,437.712Z" transform="translate(-101.499 -39.967)" fill="#227875"/>
    <path id="Path_108" data-name="Path 108" d="M330.9,408.792c-4,0-4,0-4-4.019,0-3.426,0-3.426,3.4-3.425,1.181,0,2.363.031,3.543-.01.881-.031,1.337.221,1.3,1.21-.055,1.692-.047,3.389,0,5.082.023.864-.293,1.211-1.161,1.173C332.95,408.758,331.922,408.792,330.9,408.792Z" transform="translate(-58.208 -19.999)" fill="#227875"/>
    <path id="Path_109" data-name="Path 109" d="M330.964,437.7c-4.072,0-4.072,0-4.072-4.1,0-3.334,0-3.334,3.33-3.334,1.078,0,2.162.066,3.234-.017,1.225-.095,1.791.245,1.694,1.6-.114,1.584-.053,3.182-.016,4.773.019.8-.3,1.112-1.089,1.083C333.019,437.669,331.991,437.7,330.964,437.7Z" transform="translate(-58.208 -39.952)" fill="#227875"/>
    <path id="Path_110" data-name="Path 110" d="M362.324,379.826c-4.066,0-4.066,0-4.066-4.1,0-3.341,0-3.341,3.32-3.341,1.185,0,2.371.037,3.554-.012.894-.037,1.334.221,1.3,1.21-.056,1.7-.05,3.4,0,5.1.025.881-.309,1.2-1.173,1.151C364.284,379.786,363.3,379.826,362.324,379.826Z" transform="translate(-79.868)" fill="#227875"/>
    <path id="Path_111" data-name="Path 111" d="M299.349,408.393c-3.945,0-3.945,0-3.945-3.918,0-3.526,0-3.554,3.595-3.513,1.428.016,3.242-.619,4.186.266,1.028.964.331,2.825.362,4.29.063,2.874.019,2.875-2.808,2.875Z" transform="translate(-36.464 -19.6)" fill="#227875"/>
    <path id="Path_112" data-name="Path 112" d="M361.85,408.772c-1.086-.12-2.78.572-3.649-.253-.95-.9-.295-2.636-.32-4-.059-3.189-.019-3.19,3.144-3.19,1.185,0,2.373.05,3.554-.015,1.029-.057,1.522.227,1.464,1.37-.081,1.593-.072,3.2,0,4.789.045,1.02-.314,1.4-1.327,1.315C363.844,408.717,362.964,408.772,361.85,408.772Z" transform="translate(-79.472 -19.979)" fill="#227875"/>
    <path id="Path_113" data-name="Path 113" d="M268.233,437.738c-3.942,0-3.942,0-3.942-3.92,0-3.513,0-3.513,3.451-3.513,1.185,0,2.371.035,3.554-.011.875-.034,1.19.315,1.169,1.178q-.063,2.548,0,5.1c.022.849-.246,1.23-1.143,1.181C270.3,437.7,269.263,437.738,268.233,437.738Z" transform="translate(-14.979 -39.994)" fill="#227875"/>
    <path id="Path_114" data-name="Path 114" d="M299.372,437.352c-3.968,0-3.968,0-3.968-3.893,0-3.542,0-3.577,3.572-3.525,1.469.021,3.336-.651,4.3.338.9.922.25,2.754.273,4.183.046,2.9.014,2.9-2.943,2.9Z" transform="translate(-36.464 -39.608)" fill="#227875"/>
    <path id="Path_115" data-name="Path 115" d="M362.345,437.749c-4.086,0-4.086,0-4.086-4.083,0-3.351,0-3.351,3.3-3.351,1.236,0,2.473.022,3.709-.008.741-.018,1.171.18,1.156,1.029-.031,1.8-.025,3.606,0,5.409.01.713-.252,1.036-.991,1.012C364.406,437.724,363.375,437.749,362.345,437.749Z" transform="translate(-79.869 -40.005)" fill="#227875"/>
  </g>
</svg>
