<svg xmlns="http://www.w3.org/2000/svg" width="71" height="47.299" viewBox="0 0 71 47.299">
  <g id="Group_259" data-name="Group 259" transform="translate(-109.131 -304.527)">
    <path id="Path_120" data-name="Path 120" d="M160.522,304.528q13.53,0,27.06,0c1.866,0,2.291.4,2.292,2.2q.009,15.816,0,31.633c0,1.791-.453,2.224-2.3,2.225q-27.06.006-54.12,0c-1.841,0-2.291-.436-2.292-2.231q-.009-15.817,0-31.633c0-1.795.429-2.192,2.3-2.193Q146.992,304.525,160.522,304.528Z" transform="translate(-15.907 0)" fill="#227875"/>
    <path id="Path_121" data-name="Path 121" d="M144.61,447.334q17.067,0,34.134,0c1.551,0,1.624.107,1.081,1.483-1.254,3.174-4.351,5.2-8.292,5.246-5.457.064-10.915.03-16.373.032q-18.108,0-36.215.008a12.777,12.777,0,0,1-5.275-.9,8.052,8.052,0,0,1-4.359-4.635c-.371-.944-.207-1.269.888-1.253,3.376.047,6.753.017,10.129.017Z" transform="translate(0 -102.278)" fill="#227875"/>
    <path id="Path_122" data-name="Path 122" d="M173.854,348.876c-7.632,0-15.265-.025-22.9.028-1.117.008-1.345-.307-1.339-1.332q.066-11.778-.005-23.556c-.008-1.106.349-1.3,1.4-1.3q22.827.047,45.655,0c1.016,0,1.424.143,1.415,1.282q-.089,11.845,0,23.691c.008,1.086-.366,1.21-1.328,1.206C189.119,348.86,181.487,348.876,173.854,348.876Z" transform="translate(-29.233 -13.284)" fill="#fff"/>
    <path id="Path_123" data-name="Path 123" d="M222.927,457.824c-1.475,0-2.952-.05-4.424.016-1.183.052-.761-.75-.786-1.272s-.294-1.171.768-1.151q4.492.084,8.987,0c1.042-.02.831.608.786,1.134s.422,1.332-.768,1.288C225.971,457.781,224.448,457.824,222.927,457.824Z" transform="translate(-78.375 -108.193)" fill="#fff"/>
  </g>
</svg>
