<svg id="Group_245" data-name="Group 245" xmlns="http://www.w3.org/2000/svg" width="13.504" height="21.611" viewBox="0 0 13.504 21.611">
  <path id="Path_92" data-name="Path 92" d="M47.068,264.817c0,1.644-.008,3.289.007,4.933,0,.288-.063.38-.38.377q-2.417-.025-4.834,0c-.322,0-.411-.064-.41-.386.014-3.289,0-6.578.018-9.866,0-.346-.076-.451-.451-.438-.951.033-1.9.01-2.856.029-.278.006-.383-.054-.379-.345.018-1.124.02-2.249,0-3.373-.006-.3.121-.34.384-.338.937.008,1.876-.028,2.812,0,.423.014.5-.128.493-.491a9.062,9.062,0,0,1,.291-2.463A5.172,5.172,0,0,1,47,248.528c1.318-.023,2.637,0,3.955-.011.282,0,.338.085.335.336-.014,1.054-.016,2.108,0,3.162,0,.285-.061.393-.382.383-.688-.022-1.377-.018-2.065,0a1.594,1.594,0,0,0-1.764,1.72c0,.415-.19.955.084,1.209.217.2.777.065,1.185.068.7,0,1.407.01,2.109,0,.245,0,.326.061.323.3-.012,1.152-.016,2.305,0,3.457,0,.291-.126.311-.365.309-1-.009-1.992.006-2.988-.01-.284,0-.367.067-.364.346C47.075,261.472,47.068,263.145,47.068,264.817Z" transform="translate(-37.782 -248.516)" fill="#227875"/>
  <path id="Path_93" data-name="Path 93" d="M52.286,273.955c0-1.7-.01-3.4.009-5.1,0-.328-.089-.409-.433-.4-1.028.024-2.057,0-3.085.018-.247,0-.349-.041-.34-.3.021-.575.019-1.152,0-1.727-.008-.245.072-.314.332-.311,1.059.012,2.118-.007,3.177.007.288,0,.354-.073.349-.339a10.43,10.43,0,0,1,.361-3.633,4.442,4.442,0,0,1,4.523-3.068c1.028-.013,2.057.011,3.085,0,.288,0,.365.072.353.336-.023.5-.02,1.008,0,1.511.009.232-.072.289-.31.286a11.286,11.286,0,0,0-1.746.057,2.511,2.511,0,0,0-2.3,2.134,21.035,21.035,0,0,0-.064,2.5c-.011.269.179.213.336.213,1.059,0,2.119.013,3.177-.006.307-.005.387.079.375.358-.023.561-.021,1.123,0,1.684.009.254-.086.307-.337.3-1.044-.012-2.088.01-3.131-.014-.351-.008-.427.085-.425.4.013,3.354,0,6.708.018,10.061,0,.37-.077.486-.493.472-.981-.034-1.965-.035-2.946,0-.43.016-.494-.122-.49-.482C52.3,277.266,52.286,275.61,52.286,273.955Z" transform="translate(-47.776 -258.444)" fill="#fff"/>
</svg>
