<svg xmlns="http://www.w3.org/2000/svg" width="64.246" height="64.245" viewBox="0 0 64.246 64.245">
  <g id="git-seeklogo.com" transform="translate(-0.001)">
    <path id="Path_154" data-name="Path 154" d="M63.035,29.261,34.984,1.212a4.137,4.137,0,0,0-5.851,0L23.309,7.037,30.7,14.425a4.914,4.914,0,0,1,6.222,6.264l7.121,7.121a4.917,4.917,0,1,1-2.949,2.776l-6.641-6.641V41.422a4.913,4.913,0,1,1-4.048-.143V23.64a4.863,4.863,0,0,1-1.611-1.074,4.922,4.922,0,0,1-1.061-5.382L20.447,9.9,1.213,29.131a4.138,4.138,0,0,0,0,5.853l28.051,28.05a4.138,4.138,0,0,0,5.851,0l27.92-27.919a4.14,4.14,0,0,0,0-5.853" transform="translate(0 0)" fill="#227875"/>
  </g>
</svg>
