<svg xmlns="http://www.w3.org/2000/svg" width="17.445" height="18.062" viewBox="0 0 17.445 18.062">
  <path id="Path_94" data-name="Path 94" d="M10.723,1.95A8.884,8.884,0,0,0,2,10.981a8.884,8.884,0,0,0,8.723,9.031h4.361V18.206H10.723a7.229,7.229,0,0,1,0-14.449A7.2,7.2,0,0,1,17.7,10.981v1.291a1.438,1.438,0,0,1-1.308,1.418,1.438,1.438,0,0,1-1.308-1.418V10.981a4.442,4.442,0,0,0-4.361-4.515,4.442,4.442,0,0,0-4.361,4.515A4.442,4.442,0,0,0,10.723,15.5a4.263,4.263,0,0,0,3.088-1.328A3.194,3.194,0,0,0,16.392,15.5a3.122,3.122,0,0,0,3.053-3.224V10.981A8.884,8.884,0,0,0,10.723,1.95Zm0,11.74a2.711,2.711,0,1,1,2.617-2.709A2.661,2.661,0,0,1,10.723,13.69Z" transform="translate(-2 -1.95)" fill="#fff"/>
</svg>
