<svg xmlns="http://www.w3.org/2000/svg" width="51.644" height="58.823" viewBox="0 0 51.644 58.823">
  <g id="Group_275" data-name="Group 275" transform="translate(-175.303 -265.754)">
    <path id="Path_131" data-name="Path 131" d="M201.224,265.755q11.6,0,23.192,0c2.069,0,2.68.675,2.5,2.709q-.963,11.024-1.916,22.049-1.138,12.908-2.3,25.813a3.229,3.229,0,0,1-2.32,3.2q-8.793,2.455-17.605,4.844a7.741,7.741,0,0,1-4.176-.2q-8.083-2.247-16.173-4.467a3.368,3.368,0,0,1-2.817-3.305c-.5-5.52-.952-11.044-1.444-16.565-.5-5.559-1.023-11.114-1.522-16.672q-.683-7.6-1.328-15.194c-.119-1.407.726-2.212,2.258-2.213Q189.4,265.75,201.224,265.755Z" transform="translate(0 0)" fill="#1d6462"/>
    <path id="Path_132" data-name="Path 132" d="M233.44,315.093q7.288,0,14.576,0c1.527,0,1.729.249,1.547,1.737-.153,1.251-.3,2.5-.4,3.76a1.274,1.274,0,0,1-.962,1.214c-3.883,1.552-7.75,3.144-11.621,4.725-.281.115-.554.252-.833.373-.255.111-.522.24-.446.569.07.3.341.376.627.377l2.066,0c2.6,0,5.2-.006,7.8,0,1.721.005,2.475.752,2.309,2.477-.376,3.916-.826,7.824-1.249,11.736-.106.987-.264,1.971-.318,2.962a2.141,2.141,0,0,1-1.508,2.078c-3.618,1.282-7.247,2.535-10.868,3.809a2.245,2.245,0,0,1-1.561-.013q-5.328-1.864-10.669-3.689a2.2,2.2,0,0,1-1.62-2.1c-.18-1.978-.46-3.946-.646-5.923-.162-1.725.232-2.125,1.94-2.129.612,0,1.224-.005,1.836,0,1.338.013,1.745.383,1.907,1.738a10.848,10.848,0,0,1,.207,2.162c-.11,1.284.5,1.777,1.652,2.1,1.826.515,3.609,1.19,5.394,1.841a2.074,2.074,0,0,0,1.537.03c2.072-.752,4.163-1.45,6.249-2.161a1.045,1.045,0,0,0,.859-1.022c.189-2.4.416-4.8.727-7.181.108-.826-.06-.988-.877-.984-6.657.036-13.314.02-19.971.02-1.808,0-1.969-.139-2.229-1.969-.113-.794-.151-1.6-.306-2.385a1.671,1.671,0,0,1,1.219-2.114c4.228-1.713,8.435-3.477,12.65-5.223.176-.073.347-.157.527-.217.273-.091.523-.211.428-.553-.079-.284-.359-.237-.575-.241-.65-.012-1.3-.006-1.951-.006-3.9,0-7.8-.019-11.707.012-1.066.008-1.658-.288-1.645-1.482a18.686,18.686,0,0,0-.265-2.62c-.188-1.42.04-1.713,1.468-1.715Q226.095,315.085,233.44,315.093Z" transform="translate(-32.286 -37.998)" fill="#fff"/>
  </g>
</svg>
