<svg xmlns="http://www.w3.org/2000/svg" width="56.227" height="56.221" viewBox="0 0 56.227 56.221">
  <g id="Group_260" data-name="Group 260" transform="translate(-157.168 -171.753)">
    <path id="Path_124" data-name="Path 124" d="M157.206,199.86c0-8.787.037-17.573-.037-26.359-.012-1.456.409-1.752,1.8-1.748q26.365.074,52.731.006c1.272,0,1.7.257,1.7,1.634q-.075,26.46,0,52.921c0,1.364-.408,1.645-1.691,1.642q-26.366-.061-52.731.018c-1.66.007-1.8-.583-1.795-1.958C157.232,217.3,157.206,208.579,157.206,199.86Z" transform="translate(0 0)" fill="#227875"/>
    <path id="Path_125" data-name="Path 125" d="M248.693,260.805a9.968,9.968,0,0,1-7.647-3.8c-.823-1.008-1.139-1.8.389-2.362a2.327,2.327,0,0,0,.524-.3c1.371-.979,2.488-1.673,3.875.3,1.09,1.555,3.081,1.836,5,1.357a2.574,2.574,0,0,0,2.251-2.038,2.482,2.482,0,0,0-1.509-2.805c-1.622-.818-3.31-1.507-4.937-2.315-2.386-1.184-4.25-2.822-4.828-5.606a6.865,6.865,0,0,1,4.754-8.257,8.772,8.772,0,0,1,9.3,2.27c.878,1,1.227,1.759-.3,2.409a5.662,5.662,0,0,0-1.359.873c-.851.706-1.524.916-2.246-.237a2.689,2.689,0,0,0-2.276-1.127,2.4,2.4,0,0,0-2.634,1.461,2.223,2.223,0,0,0,1.091,2.943c1.957,1.046,4.011,1.911,5.979,2.939a7.321,7.321,0,0,1,4.317,7.386C258.156,258.333,254.748,260.939,248.693,260.805Z" transform="translate(-49.428 -37.292)" fill="#fff"/>
    <path id="Path_126" data-name="Path 126" d="M209.77,245.452c0,2.9.073,5.806-.018,8.7a6.737,6.737,0,0,1-5.481,6.828c-4.028.85-8.182-.732-9.773-3.667-.354-.653-.387-1.074.319-1.449a15.418,15.418,0,0,0,1.9-1.142c.963-.708,1.672-1.049,2.466.346a2.874,2.874,0,0,0,3.7,1.237c1.437-.486,1.614-1.674,1.616-2.936.011-5.4.064-10.8-.021-16.2-.024-1.529.289-2.106,1.961-2.041,3.351.13,3.356.026,3.356,3.432v6.884Z" transform="translate(-22.034 -37.657)" fill="#fff"/>
  </g>
</svg>
