<svg xmlns="http://www.w3.org/2000/svg" width="68.425" height="70.418" viewBox="0 0 68.425 70.418">
  <g id="Group_279" data-name="Group 279" transform="translate(-151.659 -323.085)">
    <path id="Path_206" data-name="Path 206" d="M151.682,354.4c0-7.248.023-14.5-.023-21.743a2.448,2.448,0,0,1,1.429-2.458c3.92-2.182,7.8-4.434,11.667-6.711a2.171,2.171,0,0,1,2.5-.017q5.908,3.485,11.887,6.85a2.157,2.157,0,0,1,1.239,2.161c-.036,8.714-.023,17.428-.012,26.143,0,.4-.229.968.175,1.183s.766-.273,1.125-.477c2.923-1.667,5.82-3.38,8.757-5.02a1.7,1.7,0,0,0,1-1.73c-.046-4.227.006-8.456-.042-12.683a2.053,2.053,0,0,1,1.209-2.046q6.03-3.4,12-6.916a1.951,1.951,0,0,1,2.254-.033q6.022,3.546,12.11,6.98a1.988,1.988,0,0,1,1.137,1.964q-.045,6.989,0,13.978a1.893,1.893,0,0,1-1.094,1.855c-3.641,2.063-7.233,4.212-10.89,6.245a2.153,2.153,0,0,0-1.3,2.208c.069,4.14.005,8.283.044,12.424a1.985,1.985,0,0,1-1.135,1.962q-12.744,7.3-25.451,14.675a1.792,1.792,0,0,1-2.028-.009q-12.709-7.366-25.452-14.672a2.1,2.1,0,0,1-1.109-2.111C151.691,369.067,151.682,361.733,151.682,354.4Z" fill="#fff"/>
    <path id="Path_207" data-name="Path 207" d="M160.115,363.729c3.679,2.122,7.144,4.126,10.615,6.117.651.374.434.98.435,1.505.011,9.105.033,18.21-.02,27.315a2.587,2.587,0,0,0,1.532,2.652c3.645,1.966,7.224,4.056,10.835,6.085a1.4,1.4,0,0,1,.926,1.365c-.047,3.711-.02,7.422-.023,11.133a3.478,3.478,0,0,1-.062.469c-.5.087-.786-.229-1.1-.413q-11.162-6.427-22.318-12.865a1.326,1.326,0,0,1-.83-1.289C160.12,391.868,160.115,377.931,160.115,363.729Z" transform="translate(-6.249 -30.092)" fill="#227875"/>
    <path id="Path_208" data-name="Path 208" d="M222.149,363.717v10.636c0,5.3-.018,10.609.019,15.912a1.7,1.7,0,0,1-.961,1.747c-3.309,1.852-6.579,3.773-9.85,5.662-.444-.26-.251-.646-.251-.95-.012-8.5,0-16.991-.029-25.486a1.689,1.689,0,0,1,.986-1.727C215.366,367.666,218.629,365.748,222.149,363.717Z" transform="translate(-43.983 -30.083)" fill="#227875"/>
    <path id="Path_209" data-name="Path 209" d="M286.4,481.295c0,3.047-.185,6.106.058,9.13.2,2.437-.663,3.719-2.8,4.887-6.887,3.773-13.635,7.8-20.442,11.716-.287.165-.543.438-.941.4-.29-.226-.155-.553-.156-.83-.011-3.539,0-7.077-.012-10.616,0-.577.016-1.041.638-1.394q11.65-6.618,23.271-13.285C286.087,481.264,286.186,481.295,286.4,481.295Z" transform="translate(-81.766 -117.125)" fill="#227875"/>
    <path id="Path_210" data-name="Path 210" d="M250.879,455.857q-5.329,3.057-10.638,6.1-6.291,3.6-12.588,7.2c-.391.223-.736.574-1.291.253-3.435-1.981-6.886-3.935-10.468-5.976.407-.272.693-.486,1-.664,7.286-4.21,14.59-8.392,21.847-12.651a2.236,2.236,0,0,1,2.672.04c2.762,1.685,5.6,3.254,8.392,4.884C250.165,455.252,250.618,455.354,250.879,455.857Z" transform="translate(-47.559 -93.739)" fill="#227875"/>
    <path id="Path_211" data-name="Path 211" d="M313.1,392.646l10.626,6.141a.773.773,0,0,1,.429.729c-.006,3.943,0,7.887,0,12.055-1.562-.89-2.933-1.664-4.3-2.45-1.978-1.139-3.951-2.288-5.928-3.428-.453-.261-.846-.488-.841-1.151C313.118,400.673,313.1,396.8,313.1,392.646Z" transform="translate(-119.517 -51.501)" fill="#227875"/>
    <path id="Path_212" data-name="Path 212" d="M375.18,392.647c0,4.129-.013,8.006.014,11.883a1.139,1.139,0,0,1-.709,1.1c-3.177,1.828-6.354,3.654-9.516,5.507-.68.4-.864.281-.859-.5.026-3.622.017-7.244,0-10.865a1.05,1.05,0,0,1,.563-1.052C368.111,396.746,371.533,394.757,375.18,392.647Z" transform="translate(-157.294 -51.502)" fill="#227875"/>
    <path id="Path_213" data-name="Path 213" d="M186.621,338.5c-3.652,2.105-7.045,4.057-10.433,6.019a.973.973,0,0,1-1.083.039c-3.417-1.982-6.841-3.953-10.474-6.049,1.341-.785,2.511-1.478,3.687-2.158q3.244-1.874,6.5-3.733c.359-.2.69-.536,1.177-.253C179.448,334.37,182.909,336.362,186.621,338.5Z" transform="translate(-9.605 -6.792)" fill="#227875"/>
    <path id="Path_214" data-name="Path 214" d="M339.608,367.441c-3.615,2.089-6.978,4.027-10.333,5.978a1.068,1.068,0,0,1-1.2.073c-3.415-1.987-6.839-3.959-10.456-6.049l5.962-3.45q2.128-1.231,4.258-2.461c.365-.21.7-.5,1.185-.221C332.479,363.322,335.943,365.32,339.608,367.441Z" transform="translate(-122.873 -28.216)" fill="#227875"/>
  </g>
</svg>
