<svg id="Group_244" data-name="Group 244" xmlns="http://www.w3.org/2000/svg" width="19.563" height="19.238" viewBox="0 0 19.563 19.238">
  <path id="Path_86" data-name="Path 86" d="M177.562,302.975c1.716-1.864,5.224-1.68,6.711-.435a4.447,4.447,0,0,1,1.737,3.424c.047,2.864.021,5.729.018,8.593a.694.694,0,0,1-.786.733q-1.471.007-2.941,0c-.576,0-.838-.263-.839-.841q0-3.285,0-6.569a4.254,4.254,0,0,0-.039-.761,1.742,1.742,0,0,0-1.918-1.372,1.815,1.815,0,0,0-1.637,1.765c-.031.852-.013,1.706-.013,2.558q0,2.215,0,4.43c0,.548-.236.786-.789.789q-1.662.006-3.323,0c-.551,0-.777-.237-.777-.795q0-5.882,0-11.763c0-.572.233-.8.812-.8.879,0,1.757,0,2.636,0C177.339,301.927,177.453,302.028,177.562,302.975Z" transform="translate(-166.475 -296.056)" fill="#fff"/>
  <path id="Path_87" data-name="Path 87" d="M96.794,312.7q0,2.747,0,5.5a1.024,1.024,0,0,1-1.152,1.146c-.763,0-1.527,0-2.29,0a1.021,1.021,0,0,1-1.125-1.106q-.007-5.591,0-11.181a.97.97,0,0,1,1.093-1.075c.8,0,1.6-.005,2.4,0a1,1,0,0,1,1.069,1.073C96.8,308.934,96.794,310.816,96.794,312.7Z" transform="translate(-91.906 -300.105)" fill="#fff"/>
  <path id="Path_88" data-name="Path 88" d="M93.286,231.781a2.6,2.6,0,1,1-5.206-.046,2.63,2.63,0,0,1,2.654-2.548A2.594,2.594,0,0,1,93.286,231.781Z" transform="translate(-88.079 -229.187)" fill="#fff"/>
  <path id="Path_89" data-name="Path 89" d="M185.119,312.392a12.938,12.938,0,0,0,.977-.952,3.675,3.675,0,0,1,2.507-1.372,4.437,4.437,0,0,1,3.624.9,3.931,3.931,0,0,1,1.361,3.073c.006,2.7,0,5.4.008,8.093,0,.251-.087.289-.307.286-.852-.011-1.706-.017-2.558,0-.291.006-.383-.061-.382-.371.008-2.2,0-4.4-.012-6.6a2.32,2.32,0,0,0-1.011-2.137,2.387,2.387,0,0,0-2.5-.166,2.332,2.332,0,0,0-1.365,2.137c-.032,2.252-.018,4.5-.009,6.757,0,.284-.048.393-.366.386-.979-.023-1.96-.017-2.939,0-.238,0-.293-.062-.293-.3q.011-5.726,0-11.452c0-.252.066-.322.317-.318q1.317.022,2.634,0c.258,0,.325.079.318.326C185.107,311.234,185.119,311.791,185.119,312.392Z" transform="translate(-174.688 -303.838)" fill="#218f8c"/>
  <path id="Path_90" data-name="Path 90" d="M100.927,320.468q0-2.73,0-5.461c0-.485.061-.544.553-.546.726,0,1.451,0,2.177,0,.43,0,.52.089.52.516q0,5.537,0,11.075c0,.35-.149.472-.485.466-.738-.012-1.477,0-2.215,0-.5,0-.555-.055-.555-.547Q100.925,323.218,100.927,320.468Z" transform="translate(-99.944 -307.942)" fill="#1d9792"/>
  <path id="Path_91" data-name="Path 91" d="M96.724,239.752a1.752,1.752,0,0,1,1.741-1.833,1.77,1.77,0,0,1,1.834,1.749,1.812,1.812,0,0,1-1.659,1.826A1.785,1.785,0,0,1,96.724,239.752Z" transform="translate(-96.063 -237.251)" fill="#209f9b"/>
</svg>
