<svg xmlns="http://www.w3.org/2000/svg" width="62.453" height="62.069" viewBox="0 0 62.453 62.069">
  <g id="Group_277" data-name="Group 277" transform="translate(-218.297 -429.004)">
    <path id="Path_133" data-name="Path 133" d="M249.328,429c17.161-.1,31.339,13.748,31.422,30.7A31.228,31.228,0,1,1,249.328,429Z" fill="#227875"/>
    <path id="Path_134" data-name="Path 134" d="M270.143,507.608a67.092,67.092,0,0,1-11.617,7.3c-1.356.658-1.55,1.441-1,2.66.432.812.048,1.125-.725,1.062-1.446-.117-2.693-2.135-2.341-3.72,2.68-2.633,5.384-5.241,8.022-7.915a5.829,5.829,0,0,1,2.438-1.522c.447-.7,1.2-.624,1.878-.746a3.409,3.409,0,0,1,2.107-.047C269.916,505.4,270.965,506.109,270.143,507.608Z" transform="translate(-19.751 -41.32)" fill="#fffcfa"/>
    <path id="Path_135" data-name="Path 135" d="M276.329,480.465c3-2.557,5.673-5.493,8.87-7.829,1.262-.922,2.511-1.946,4.133-2.094.785-.072,2.064-.244,1.26,1.339-.236,1.12-1.17,1.717-1.9,2.437-2.947,2.886-5.719,5.95-8.833,8.668a2.3,2.3,0,0,1-1.936.354C277.078,482.554,275.539,482.15,276.329,480.465Z" transform="translate(-31.632 -22.704)" fill="#fef7f3"/>
    <path id="Path_136" data-name="Path 136" d="M283.347,484.138,294.1,473.494c.683-.254,1.37.638,2.052-.007q.283.018.235.3c.133.783.466,1.565.02,2.354-.317,1.093-1.289,1.7-1.9,2.585a4.53,4.53,0,0,1-1.171.922,5.341,5.341,0,0,0-1.926,1.786,4.472,4.472,0,0,1-1.6,1.325,5.745,5.745,0,0,0-2.121,1.887,6.763,6.763,0,0,1-1.657,1.291,7.638,7.638,0,0,1-2.664.787,1.359,1.359,0,0,1-.826-.94,1.814,1.814,0,0,1,0-.648C282.67,484.686,283.114,484.5,283.347,484.138Z" transform="translate(-35.139 -24.317)" fill="#fef9f5"/>
    <path id="Path_137" data-name="Path 137" d="M311.034,463.395a.452.452,0,0,0-.235-.3,6.111,6.111,0,0,1-1.453-4.545,4.476,4.476,0,0,1,3.145-3.745c1.609-.539,3.242-.633,4.4,1.028-.177,1.141-1.1,1.75-1.86,2.416-1.251,1.1-1.5,2.03-.1,3.236.728.629,1.677,1.532.117,2.4C313.654,464.128,312.373,463.531,311.034,463.395Z" transform="translate(-49.786 -13.928)" fill="#fff9f5"/>
    <path id="Path_138" data-name="Path 138" d="M291.994,487.028l1.31-.917c.682-.839,1.64-1.394,2.308-2.247l.854-.483c.713-.45,1.047-1.681,2.263-1.094-1.148,3.846-4.133,6.336-6.752,9.092-.88.926-1.809,1.806-2.715,2.708-1.445.334-2.055-.785-2.416-1.721-.454-1.177,1-1.414,1.535-2.132l1.295-1.018C290.418,488.453,291.315,487.855,291.994,487.028Z" transform="translate(-37.46 -29.068)" fill="#fef5f0"/>
    <path id="Path_139" data-name="Path 139" d="M323.705,462.869c-.48.789-.7,1.8-1.775,2.085-1.316-.742-3.059-1.806-2.878-3.086.236-1.67,2.043-2.792,3.547-3.775.18-.118.423.038.586.2l.525,1.223A7.309,7.309,0,0,1,323.705,462.869Z" transform="translate(-55.121 -15.893)" fill="#fdf0e8"/>
    <path id="Path_140" data-name="Path 140" d="M271.2,497.742l-3.077.267a9.523,9.523,0,0,1,3.195-3.2.952.952,0,0,1,.6.228c.568.612,1.655,1.024,1.383,2.023C273.017,498.083,271.834,497.272,271.2,497.742Z" transform="translate(-27.261 -36.006)" fill="#fff"/>
    <path id="Path_141" data-name="Path 141" d="M249.276,533.032c-.538-.185-1.344.2-1.611-.412-.286-.653.5-.975.874-1.388a9.727,9.727,0,0,1,1.189-.98c1.481.279,2.1,1.457,2.921,2.672A5.566,5.566,0,0,1,249.276,533.032Z" transform="translate(-15.482 -55.145)" fill="#fbe9df"/>
    <path id="Path_142" data-name="Path 142" d="M322.46,458c-1.669.513-2.434,2.081-3.647,3.127-.578.5-.142.921.224,1.3.718.747,1.445,1.487,2.167,2.229-.513.311-.717,1.152-1.556.9,1.188-1.1-.115-1.64-.643-2.031-1.832-1.359-1.628-2.487.057-3.76A30.772,30.772,0,0,0,321.5,457.5C321.892,457.521,322.291,457.535,322.46,458Z" transform="translate(-54.396 -15.592)" fill="#227875"/>
    <path id="Path_143" data-name="Path 143" d="M251.3,531.5h3.4l-2.949-2.78c.327-.43.339-1.112,1.011-1.267-.193,1.874,1.5,2.4,2.518,3.357.359.34.389-.423.548-.7.709.735.425,1.142-.437,1.415A4.933,4.933,0,0,1,251.3,531.5Z" transform="translate(-18.056 -53.867)" fill="#227875"/>
    <path id="Path_144" data-name="Path 144" d="M286.95,500.022c-1.492,2.589-1.454,2.753.881,3.853l-1.411,1.27c.417-1.3-1-1.61-1.356-2.489-.086-.636-1.206-.719-.851-1.59Z" transform="translate(-36.028 -38.858)" fill="#227875"/>
    <path id="Path_145" data-name="Path 145" d="M274.915,496.482c2.281-.824,2.281-.824.118-2.932.053-.446.113-.888.643-1.042-.251,1.394,1.157,1.743,1.677,2.652.307.477.979,0,1.28.487a.419.419,0,0,1-.035.424c-.248.39-.674.593-.976.929-.355.259-.624.783-1.191.4C276.347,496.39,275.546,496.577,274.915,496.482Z" transform="translate(-30.978 -34.746)" fill="#227875"/>
    <path id="Path_146" data-name="Path 146" d="M277.852,502.27l.918-.851c1.681.056,1.853.4.978,1.933-.656.512-1.45.312-2.184.42A2.183,2.183,0,0,1,277.852,502.27Z" transform="translate(-32.4 -39.622)" fill="#fff"/>
    <path id="Path_147" data-name="Path 147" d="M310.457,480.787l-2.263,1.094c.234-1.3,1.382-1.773,2.261-2.49C310.587,479.857,311.312,480.321,310.457,480.787Z" transform="translate(-49.187 -27.569)" fill="#227875"/>
    <path id="Path_148" data-name="Path 148" d="M329.343,464.643q0-1.674,0-3.349A3.12,3.12,0,0,1,329.343,464.643Z" transform="translate(-60.759 -17.668)" fill="#f7d1bd"/>
    <path id="Path_149" data-name="Path 149" d="M281.267,502.78c.177-.9.7-1.97-.978-1.933.281-.516.781-.452,1.249-.473l.566.884c.3.519,1.058.8.851,1.59Z" transform="translate(-33.919 -39.05)" fill="#227875"/>
    <path id="Path_150" data-name="Path 150" d="M281.578,498.134c-.473-.04-1.008.08-1.28-.487l1.835-.592Z" transform="translate(-33.924 -37.234)" fill="#227875"/>
    <path id="Path_151" data-name="Path 151" d="M303.518,485.957c-.2,1.329-1.284,1.759-2.308,2.247C301.453,486.917,302.514,486.466,303.518,485.957Z" transform="translate(-45.366 -31.162)" fill="#227875"/>
    <path id="Path_152" data-name="Path 152" d="M295.518,492.946c-.245,1.286-1.225,1.8-2.318,2.186C293.5,493.9,294.511,493.427,295.518,492.946Z" transform="translate(-40.983 -34.986)" fill="#227875"/>
    <path id="Path_153" data-name="Path 153" d="M327.154,464.565c-.04.4-.131.835-.59.73-.415-.095-.335-.572-.317-.912.013-.257-.017-.638.4-.6C327.122,463.83,327.119,464.239,327.154,464.565Z" transform="translate(-59.055 -19.029)" fill="#227875"/>
  </g>
</svg>
