<svg xmlns="http://www.w3.org/2000/svg" width="52.45" height="57.853" viewBox="0 0 52.45 57.853">
  <g id="Group_269" data-name="Group 269" transform="translate(-110.144 -170.11)">
    <path id="Path_127" data-name="Path 127" d="M280.572,389.632a22.885,22.885,0,0,0-3.106-.679q-8.638-1.743-17.281-3.461c-2.871-.574-5.74-1.161-8.615-1.714-.347-.067-.409-.189-.409-.5q.012-10.12,0-20.24c0-.423.174-.434.495-.429q8.224.146,16.449.277c4.089.068,8.177.145,12.266.189.531.006.642.166.641.67q-.023,12.636-.01,25.272c0,.206.018.412.028.618Z" transform="translate(-118.431 -161.67)" fill="#227875"/>
    <path id="Path_128" data-name="Path 128" d="M266.029,196.838c-4.765.083-9.531.159-14.3.26-.47.01-.583-.1-.582-.575q.026-9.976,0-19.951c0-.433.094-.6.54-.689,5.009-.98,10.012-1.986,15.017-2.983,4.6-.916,9.2-1.821,13.8-2.761.466-.1.488.039.488.416q-.011,12.745,0,25.491c0,.446-.119.57-.563.574-3.278.03-6.555.093-9.833.131-1.525.018-3.051,0-4.577,0Z" transform="translate(-118.426)" fill="#227875"/>
    <path id="Path_129" data-name="Path 129" d="M128.568,212.147v.54q0,9.61.011,19.22c0,.47-.126.588-.59.593q-8.648.106-17.295.261c-.427.008-.532-.094-.531-.521q.023-7.942,0-15.884c0-.419.118-.581.526-.66,4.033-.789,8.062-1.6,12.093-2.4Z" transform="translate(-0.016 -35.305)" fill="#227875"/>
    <path id="Path_130" data-name="Path 130" d="M128.525,380.918c-2.19-.434-4.36-.863-6.53-1.3-3.7-.738-7.394-1.489-11.1-2.206-.542-.1-.758-.258-.754-.873.031-5.219.024-10.438.007-15.657,0-.472.119-.588.589-.579q8.618.158,17.236.274c.331,0,.591-.036.589.473-.019,6.5-.012,13-.013,19.5C128.551,380.666,128.535,380.777,128.525,380.918Z" transform="translate(0 -159.739)" fill="#227875"/>
  </g>
</svg>
