<svg xmlns="http://www.w3.org/2000/svg" width="81.412" height="58.942" viewBox="0 0 81.412 58.942">
  <g id="Group_281" data-name="Group 281" transform="translate(6698.57 -5599.864)">
    <path id="Path_205" data-name="Path 205" d="M65.639,26.251C63.332,13.541,53.054,4,40.706,4c-9.8,0-18.318,6.042-22.558,14.883C7.938,20.062,0,29.456,0,40.839c0,12.194,9.125,22.1,20.353,22.1h44.1c9.362,0,16.961-8.252,16.961-18.419C81.412,34.8,74.458,26.914,65.639,26.251Z" transform="translate(-6698.57 5595.864)" fill="#227875"/>
    <path id="Path_200" data-name="Path 200" d="M190.485,427.675a12.863,12.863,0,0,1,2.623.905A9.953,9.953,0,0,1,196.7,431.8a4.7,4.7,0,0,1,.888,1.368,9.053,9.053,0,0,1,.606,1.268,12.748,12.748,0,0,1,.777,3.067,20,20,0,0,1,.025,2.078,11.008,11.008,0,0,1-.684,2.958,9.716,9.716,0,0,1-2.59,3.981,9.239,9.239,0,0,1-3.4,2.05,17.709,17.709,0,0,0,1.43,1.338c.434.4.88.779,1.3,1.185.115.11.256.191.288.363q1.323,1.265,2.727,2.439l.192.172c-.106.192-.288.1-.434.1-1.776.007-3.552,0-5.328.011a.767.767,0,0,1-.654-.312c-.643-.757-1.309-1.494-1.966-2.238-.628-.86-1.37-1.624-2.053-2.437a.423.423,0,0,0-.333-.17,12.247,12.247,0,0,1-2.847-.51,11.89,11.89,0,0,1-3.442-1.989c-.3-.268-.583-.553-.874-.829a2.54,2.54,0,0,1-.85-.962,9.2,9.2,0,0,1-.823-1.467,13.838,13.838,0,0,1-.773-2.309,13.528,13.528,0,0,1-.259-2.935c.092-.582.064-1.174.157-1.757a2.423,2.423,0,0,1,.114-.558,12.97,12.97,0,0,1,.792-2.47,12.608,12.608,0,0,1,1.185-1.924,2.217,2.217,0,0,1,.618-.6,10.925,10.925,0,0,1,4-2.573,11.264,11.264,0,0,1,5.8-.48A1.651,1.651,0,0,0,190.485,427.675Z" transform="translate(-6846.177 5193.044)" fill="#fff"/>
    <path id="Path_201" data-name="Path 201" d="M30.228,425.429l.682.188c.608.123.736.542.669,1.082q0,1.314,0,2.628a.427.427,0,0,1,.134.351c0,.192.039.409-.144.538s-.378.008-.538-.1a7.206,7.206,0,0,0-2.9-1.073,6.364,6.364,0,0,0-3.257.175,2.014,2.014,0,0,0-.466,3.481c.09.069.181.137.272.2a9.618,9.618,0,0,0,2.415,1.328,3.5,3.5,0,0,1,.647.329,13.257,13.257,0,0,1,2.651,1.818,5.68,5.68,0,0,1,1.817,2.866,8.144,8.144,0,0,1,.192,2.572,5.954,5.954,0,0,1-.556,2.069.735.735,0,0,1-.366.424c-1.258,1.825-3.178,2.425-5.214,2.712a13.1,13.1,0,0,1-6.264-.664l-.993-.482v-4.708l1.09.712c.23-.021.391.133.578.224a7.638,7.638,0,0,0,5.17.851,1.849,1.849,0,0,0,1.658-2.305.422.422,0,0,1,.067-.325,1.7,1.7,0,0,0-.63-.892,13.575,13.575,0,0,0-3.432-1.933,13.83,13.83,0,0,1-3.43-2.333,6.139,6.139,0,0,1-1.389-2.93c-.025-.191-.047-.383-.071-.575a6.792,6.792,0,0,1,.406-2.632,8.365,8.365,0,0,1,1.17-1.747,7.6,7.6,0,0,1,4.021-2.083c.441-.084.892-.117,1.338-.174a10.38,10.38,0,0,1,1.741,0A19.159,19.159,0,0,1,30.228,425.429Z" transform="translate(-6702.667 5196.049)" fill="#fff"/>
    <path id="Path_204" data-name="Path 204" d="M434.035,445.639c2.447.006,4.894.025,7.341.006.47,0,.611.12.586.59-.056,1.066.041,2.137-.053,3.2l-6.416.013a1.72,1.72,0,0,1-.708.136c-1.65.028-3.3.015-4.949.008-.571,0-.649-.086-.713-.615-.023-.98-.02-1.96,0-2.94-.017-1.2-.021-2.4,0-3.594q-.029-1.363,0-2.727c-.019-.75-.017-1.5,0-2.25q-.027-1.6,0-3.209c-.025-.792-.009-1.585-.008-2.378a.73.73,0,0,1,.162-.544c.006-.889.025-1.778.01-2.667-.006-.341.065-.488.45-.481,1.261.024,2.524.021,3.785,0,.353-.006.427.119.426.446-.008,2.328,0,4.657.008,6.986v5.255c.069.518.013,1.039.031,1.558,0,.912,0,1.824,0,2.735A.814.814,0,0,0,434.035,445.639Z" transform="translate(-7073.177 5193.719)" fill="#fff"/>
    <ellipse id="Ellipse_19" data-name="Ellipse 19" cx="5.988" cy="7.077" rx="5.988" ry="7.077" transform="translate(-6664.197 5624.436)" fill="#227875"/>
  </g>
</svg>
