<svg xmlns="http://www.w3.org/2000/svg" width="68.773" height="68.755" viewBox="0 0 68.773 68.755">
  <g id="Group_287" data-name="Group 287" transform="translate(-196.858 -388.714)">
    <path id="Path_215" data-name="Path 215" d="M265.631,423.074a34.387,34.387,0,1,1-34.2-34.36A34.482,34.482,0,0,1,265.631,423.074Z" transform="translate(0)" fill="#227875"/>
    <path id="Path_216" data-name="Path 216" d="M227.262,415.4c.831.169,2.265-.552,2.205,1.311-.04,1.237.548,2.808-1.753,2.694-1.911-.094-2.283,1.352-2.417,2.884-.249,2.841-.079,5.695-.715,8.535-.445,1.991-2.8,3.156-2.664,4.653.134,1.531,2.228,2.715,2.682,4.693.631,2.75.477,5.514.674,8.269.129,1.816.708,3.171,2.847,3.07,1.863-.088,1.237,1.29,1.353,2.232.152,1.229-.315,1.694-1.631,1.747-4.459.177-6.808-1.959-7.179-6.7-.2-2.578.121-5.166-.4-7.752-.369-1.811-1.108-3.083-2.974-3.245-1.969-.171-1.251-1.562-1.361-2.575-.122-1.124-.1-2.069,1.516-2.178,1.771-.121,2.375-1.437,2.8-3.08.845-3.241-.2-6.6.869-9.817C222.325,416.5,223.5,415.474,227.262,415.4Z" transform="translate(-8.788 -12.327)" fill="#fffffe"/>
    <path id="Path_217" data-name="Path 217" d="M282.555,415.394c4.3.087,6.267,2.074,6.642,6.52.218,2.574-.106,5.161.406,7.743.369,1.865.987,3.3,3.059,3.421,1.572.09,1.373,1.142,1.271,2.071-.107.979.728,2.409-1.262,2.626-1.965.214-2.685,1.556-3.095,3.454-.739,3.42.3,6.959-.967,10.331a6.041,6.041,0,0,1-7.276,3.892c-1.4-.34-.851-1.356-.916-2.129-.072-.846-.274-1.9,1.2-1.81,2.474.157,2.945-1.5,3.07-3.445a51.041,51.041,0,0,1,.638-7.986c.439-1.968,2.658-3.174,2.641-4.666s-2.2-2.7-2.649-4.674c-.623-2.746-.4-5.509-.666-8.254-.151-1.576-.454-3.2-2.529-3.087s-1.644-1.243-1.74-2.449C280.217,414.948,281.655,415.492,282.555,415.394Z" transform="translate(-38.578 -12.326)" fill="#fffffe"/>
    <path id="Path_218" data-name="Path 218" d="M243.23,450.331c-.236,1.545-.961,2.654-2.7,2.644a2.342,2.342,0,0,1-2.634-2.354,2.386,2.386,0,0,1,2.447-2.808C242.058,447.692,242.889,448.739,243.23,450.331Z" transform="translate(-18.955 -27.298)" fill="#f6f7ed"/>
    <path id="Path_219" data-name="Path 219" d="M261.172,450.4c-.111,1.691-.954,2.575-2.561,2.585a2.36,2.36,0,0,1-2.636-2.672,2.331,2.331,0,0,1,2.547-2.5A2.388,2.388,0,0,1,261.172,450.4Z" transform="translate(-27.311 -27.301)" fill="#f3f6e9"/>
    <path id="Path_220" data-name="Path 220" d="M276.492,453a2.6,2.6,0,1,1,.161-5.187,2.35,2.35,0,0,1,2.519,2.542C279.184,452.138,278.154,452.919,276.492,453Z" transform="translate(-35.595 -27.302)" fill="#f5f7ed"/>
  </g>
</svg>
