<svg xmlns="http://www.w3.org/2000/svg" width="57.776" height="69.584" viewBox="0 0 57.776 69.584">
  <g id="Group_288" data-name="Group 288" transform="translate(-180.034 -303.894)">
    <path id="Path_221" data-name="Path 221" d="M214.785,368.376a30.775,30.775,0,0,1-11.737-.018,1.228,1.228,0,0,0-.139.311c-.278,4.037-2.442,5.473-6.835,4.529a3.435,3.435,0,0,1-2.806-3.129c-.039-1.443-.056-2.889.01-4.331a1.552,1.552,0,0,0-.894-1.516c-8.215-5.388-12.419-12.667-12.349-21.82a23.281,23.281,0,0,1,6.131-15.464c.608-.695.724-1.089-.077-1.707-1.063-.82-1.986-1.785-3-2.656-.807-.69-.913-1.315-.058-2.057q2.328-2.02,4.576-4.116a1.452,1.452,0,0,1,2.289.022c1.217,1.138,2.5,2.216,3.706,3.367a1.172,1.172,0,0,0,1.618.266,26.19,26.19,0,0,1,7.986-2.6c1.623-.253.692-1.344.876-2.047.218-.834-.551-.644-1.053-.65q-1.731-.02-3.462,0c-.988.009-1.49-.4-1.485-1.3.008-1.534-.071-3.072.028-4.6a5.682,5.682,0,0,1,5.628-4.907q5.191-.1,10.386,0a5.675,5.675,0,0,1,5.614,4.919c.1,1.529.021,3.067.027,4.6,0,.907-.518,1.3-1.5,1.292-.9-.011-1.807,0-2.71,0-1.934,0-1.892,0-1.835,1.757.021.642.287.846.936.947a27.065,27.065,0,0,1,7.989,2.6,1.1,1.1,0,0,0,1.509-.179c1.232-1.186,2.559-2.293,3.811-3.464a1.463,1.463,0,0,1,2.3,0q2.254,2.088,4.573,4.118c.77.677.782,1.282,0,1.956-1.048.907-2.014,1.895-3.1,2.758-.71.562-.7.944-.128,1.6a23.36,23.36,0,0,1,6.2,16.389c-.214,8.66-4.285,15.6-12.024,20.749a2.171,2.171,0,0,0-1.226,2.183,37.292,37.292,0,0,1,.017,3.789,3.425,3.425,0,0,1-3.591,3.283c-.652.02-1.3.006-1.957,0-2.659-.012-4.05-1.266-4.088-3.661C214.928,369.193,215.059,368.779,214.785,368.376Z" transform="translate(0 0)" fill="#227875"/>
    <path id="Path_222" data-name="Path 222" d="M214.49,359.98c14.609.012,26.478,10.756,26.448,23.94-.03,13.063-11.972,23.731-26.549,23.717-14.616-.014-26.479-10.754-26.447-23.943C187.974,370.636,199.917,359.968,214.49,359.98Z" transform="translate(-5.525 -40.89)" fill="#fff"/>
    <path id="Path_223" data-name="Path 223" d="M256.079,318.381c-2.4,0-4.808-.025-7.21.014-.782.013-1.092-.1-1.133-.918-.213-4.252.683-5.877,6.028-5.614,2.3.113,4.606.007,6.909.022,2.451.016,3.916,1.326,3.957,3.508.057,2.988.057,2.988-3.293,2.988Z" transform="translate(-47.28 -5.79)" fill="#fff"/>
    <path id="Path_224" data-name="Path 224" d="M205.073,361.022c-.892.637-1.534,1.131-2.218,1.572-.586.378-1.163,1.408-1.642,1.133a18.373,18.373,0,0,1-3.018-2.573c-.058-.053-.024-.278.052-.348.978-.9,1.961-1.787,2.968-2.656.246-.212.444.041.618.185C202.894,359.212,203.952,360.092,205.073,361.022Z" transform="translate(-12.667 -39.496)" fill="#fff"/>
    <path id="Path_225" data-name="Path 225" d="M335.714,356.971a7.016,7.016,0,0,0,.84,1.15c2.315,2.113,2.3,2.084-.014,4.215-.666.613-1.13.869-1.84.076a5.17,5.17,0,0,0-1.477-1.121c-1.363-.695-1.212-1.323-.08-2.1a17.867,17.867,0,0,0,1.706-1.507C335.02,357.534,335.2,357.392,335.714,356.971Z" transform="translate(-106.344 -38.696)" fill="#fff"/>
    <path id="Path_226" data-name="Path 226" d="M308.439,533.683c0,1.332.017,2.573-.007,3.813a1.065,1.065,0,0,1-1.088,1.085,18.4,18.4,0,0,1-2.687-.009.977.977,0,0,1-1-1c.066-.8-.552-1.862.408-2.342A35.965,35.965,0,0,1,308.439,533.683Z" transform="translate(-86.275 -167.527)" fill="#227875"/>
    <path id="Path_227" data-name="Path 227" d="M231.905,533.806c1.537.519,2.974.9,4.294,1.485,1.1.493.414,1.533.488,2.318.062.669-.482,1.06-1.246,1.084-.7.022-1.4.011-2.107.006-1-.007-1.44-.488-1.432-1.366C231.914,536.207,231.905,535.08,231.905,533.806Z" transform="translate(-36.238 -167.617)" fill="#227875"/>
    <path id="Path_228" data-name="Path 228" d="M269.964,346.035c-.4,0-.8,0-1.2,0a1.3,1.3,0,0,1-1.236-1.934.481.481,0,0,1,.319-.217,23.018,23.018,0,0,1,4.171.062c.707.125.191,1.1.288,1.682.08.483-.353.424-.7.42-.548-.005-1.1,0-1.644,0Z" transform="translate(-60.999 -29.106)" fill="#f5f9fb"/>
    <path id="Path_229" data-name="Path 229" d="M254.308,395.542c0,1.534.033,3.068-.016,4.6-.02.644.183.85.916.835,2.055-.043,4.113-.032,6.169-.01,2.19.024,3.779,1.415,3.77,3.259s-1.6,3.21-3.8,3.232c-1.555.016-3.11,0-4.664,0a7.4,7.4,0,0,0-4.154.721,3.851,3.851,0,0,1-3.471.075,1.221,1.221,0,0,0-1.532.31c-1.747,1.618-3.541,3.193-5.307,4.794-.631.572-1.3.94-2.044.209-.686-.671-.24-1.223.34-1.741,1.779-1.589,3.532-3.2,5.331-4.772.491-.428.65-.766.346-1.378a3.372,3.372,0,0,1,.345-3.614,2.978,2.978,0,0,0,.549-1.89q-.031-4.33-.005-8.66a3.612,3.612,0,0,1,7.222-.035C254.317,392.836,254.308,394.19,254.308,395.542Z" transform="translate(-41.777 -61.292)" fill="#227875"/>
    <path id="Path_230" data-name="Path 230" d="M274.344,373.124a1.13,1.13,0,0,1-1.283,1.032c-.75-.045-1.184-.485-1.123-1.162a1.062,1.062,0,0,1,1.185-.977A1.122,1.122,0,0,1,274.344,373.124Z" transform="translate(-64.206 -49.665)" fill="#0e0f0f"/>
    <path id="Path_231" data-name="Path 231" d="M237.074,386.167c-.713-.135-1.19-.5-1.115-1.186a1.086,1.086,0,0,1,1.327-.974,1.026,1.026,0,0,1,1.052,1.089C238.308,385.788,237.826,386.11,237.074,386.167Z" transform="translate(-39.067 -58.399)" fill="#0e0f0f"/>
    <path id="Path_232" data-name="Path 232" d="M308.922,383.875c.864.081,1.347.4,1.364,1.1a1.032,1.032,0,0,1-1.069,1.076,1.089,1.089,0,0,1-1.313-.992C307.828,384.352,308.376,384.055,308.922,383.875Z" transform="translate(-89.332 -58.31)" fill="#0e0f0f"/>
    <path id="Path_233" data-name="Path 233" d="M213.249,414.165c-.759-.061-1.253-.4-1.26-1.082S212.443,412,213.2,412a1.051,1.051,0,0,1,1.166.989C214.423,413.683,213.958,414.036,213.249,414.165Z" transform="translate(-22.326 -78.815)" fill="#0e0f0f"/>
    <path id="Path_234" data-name="Path 234" d="M333.113,414.171c-.816-.154-1.293-.52-1.217-1.2a1.086,1.086,0,0,1,1.327-.975,1.034,1.034,0,0,1,1.054,1.089C334.258,413.792,333.72,414.053,333.113,414.171Z" transform="translate(-106.094 -78.801)" fill="#0e0f0f"/>
    <path id="Path_235" data-name="Path 235" d="M202.4,445.016a1.114,1.114,0,0,1-1.225,1.1,1.073,1.073,0,1,1-.054-2.138A1.135,1.135,0,0,1,202.4,445.016Z" transform="translate(-13.944 -102.125)" fill="#0e0f0f"/>
    <path id="Path_236" data-name="Path 236" d="M346.29,445.076a1.1,1.1,0,0,1-1.245,1.034c-.759-.021-1.189-.421-1.17-1.1s.466-1.063,1.228-1.049A1.086,1.086,0,0,1,346.29,445.076Z" transform="translate(-114.468 -102.114)" fill="#0a0b0b"/>
    <path id="Path_237" data-name="Path 237" d="M213.266,475.872c.7.138,1.169.5,1.1,1.189a1.057,1.057,0,0,1-1.181.976c-.757-.009-1.215-.42-1.2-1.1S212.5,475.921,213.266,475.872Z" transform="translate(-22.326 -125.38)" fill="#0e0f0f"/>
    <path id="Path_238" data-name="Path 238" d="M333.082,475.864c.732.089,1.211.419,1.2,1.116a1.038,1.038,0,0,1-1.1,1.049,1.073,1.073,0,0,1-1.279-1.023C331.864,476.32,332.348,475.968,333.082,475.864Z" transform="translate(-106.104 -125.375)" fill="#0e0f0f"/>
    <path id="Path_239" data-name="Path 239" d="M237.235,506.113c-.76-.06-1.253-.4-1.261-1.081s.452-1.086,1.211-1.084a1.052,1.052,0,0,1,1.167.988C238.409,505.632,237.942,505.983,237.235,506.113Z" transform="translate(-39.083 -145.849)" fill="#0e0f0f"/>
    <path id="Path_240" data-name="Path 240" d="M309.228,506.125c-.854-.115-1.341-.464-1.305-1.151a1.07,1.07,0,0,1,1.27-1.03,1.049,1.049,0,0,1,1.113,1.04C310.335,505.708,309.782,505.963,309.228,506.125Z" transform="translate(-89.349 -145.844)" fill="#0e0f0f"/>
    <path id="Path_241" data-name="Path 241" d="M274.345,517.041a1.13,1.13,0,0,1-1.282,1.034c-.75-.044-1.185-.484-1.124-1.161a1.061,1.061,0,0,1,1.184-.978A1.122,1.122,0,0,1,274.345,517.041Z" transform="translate(-64.206 -154.589)" fill="#0e0f0f"/>
    <path id="Path_242" data-name="Path 242" d="M274.225,401.114c0,1.306-.079,2.617.025,3.915.084,1.042-.651.757-1.231.758s-1.268.277-1.232-.759c.087-2.519.039-5.042.022-7.564-.005-.779.276-1.392,1.211-1.39s1.225.611,1.21,1.392C274.208,398.682,274.225,399.9,274.225,401.114Z" transform="translate(-64.103 -67.205)" fill="#fff"/>
    <path id="Path_243" data-name="Path 243" d="M270.277,439.943a2.337,2.337,0,0,1,2.434,2.1,2.3,2.3,0,0,1-2.3,2.223,2.18,2.18,0,1,1-.131-4.327Z" transform="translate(-61.387 -99.187)" fill="#868a8d"/>
    <path id="Path_244" data-name="Path 244" d="M295.1,446.047a19.153,19.153,0,0,0-1.949.012c-1.1.112-1.566-.131-1.475-1.259.062-.772.25-.966,1.073-.936,1.548.056,3.1.027,4.652.012.871-.009,1.54.27,1.521,1.109s-.709,1.092-1.57,1.066C296.6,446.029,295.852,446.047,295.1,446.047Z" transform="translate(-77.992 -102.043)" fill="#fff"/>
  </g>
</svg>
