<svg xmlns="http://www.w3.org/2000/svg" width="19.938" height="16.569" viewBox="0 0 19.938 16.569">
  <g id="Group_243" data-name="Group 243" transform="translate(0.505 0.5)">
    <path id="Path_85" data-name="Path 85" d="M180.137,218.885v.185a3.592,3.592,0,0,1-.643.914,6.41,6.41,0,0,1-1.041.989.349.349,0,0,0-.13.317c0,.312-.005.627-.031.938a11.155,11.155,0,0,1-.487,2.475,11.987,11.987,0,0,1-1.166,2.565,10.85,10.85,0,0,1-1.719,2.161,10.2,10.2,0,0,1-3.842,2.384,11.555,11.555,0,0,1-7.6-.058,10.317,10.317,0,0,1-2.033-1,.476.476,0,0,1-.213-.222.339.339,0,0,1,.351-.481c.2.006.4.045.606.048a7.354,7.354,0,0,0,3.277-.678,6.405,6.405,0,0,0,.676-.36,4.1,4.1,0,0,1-2.842-2.587.42.42,0,0,1,.034-.468.434.434,0,0,1,.457-.092,2.572,2.572,0,0,1-.483-.348,5.65,5.65,0,0,1-.461-.477,3.486,3.486,0,0,1-.366-.531,4.392,4.392,0,0,1-.281-.581,4.062,4.062,0,0,1-.281-1.459c0-.355.252-.506.574-.354.1.047.2.1.31.139a4.033,4.033,0,0,1-.826-2.027,4.111,4.111,0,0,1,.493-2.494.359.359,0,0,1,.637-.061c.271.3.55.6.84.882a10.1,10.1,0,0,0,3.517,2.221,10.6,10.6,0,0,0,2.415.589c.207.027.249,0,.234-.21a3.882,3.882,0,0,1,.378-1.988,4.1,4.1,0,0,1,6.031-1.631,4.831,4.831,0,0,1,.408.317.3.3,0,0,0,.289.069,6.807,6.807,0,0,0,1.664-.646c.086-.048.173-.095.262-.136a.344.344,0,0,1,.4.04.366.366,0,0,1,.094.423,4,4,0,0,1-.585,1.125.956.956,0,0,0-.107.148,6.516,6.516,0,0,0,.7-.253A.326.326,0,0,1,180.137,218.885Z" transform="translate(-161.204 -216.859)" fill="none" stroke="#fff" stroke-width="1"/>
  </g>
</svg>
